<?xml version="1.0" encoding="UTF-8"?>
<svg version="1.1" xmlns="http://www.w3.org/2000/svg" width="251" height="383" viewBox="0 0 251 383">
<path d="M0 0 C82.83 0 165.66 0 251 0 C251 126.39 251 252.78 251 383 C168.17 383 85.34 383 0 383 C0 256.61 0 130.22 0 0 Z " fill="#FCFDFC" transform="translate(0,0)"/>
<path d="M0 0 C0.99 0.33 1.98 0.66 3 1 C3.73046875 2.84765625 3.73046875 2.84765625 4.1875 5.0625 C4.34605469 5.79597656 4.50460938 6.52945313 4.66796875 7.28515625 C4.77753906 7.85105469 4.88710937 8.41695312 5 9 C5.66 9 6.32 9 7 9 C7.45850342 9.92748047 7.91700684 10.85496094 8.3894043 11.81054688 C10.10917775 15.28658962 11.83443898 18.75988516 13.5612793 22.23242188 C14.3046161 23.72908613 15.04650879 25.22646859 15.78686523 26.72460938 C20.53361615 36.48852824 20.53361615 36.48852824 26.01953125 45.84375 C28 49 28 49 28 52 C22.21046327 51.57114543 17.62265986 50.24420937 12.296875 47.9375 C10.20408106 47.08329839 8.20349323 46.48517282 6 46 C5.92652344 47.23363281 5.92652344 47.23363281 5.8515625 48.4921875 C4.81522952 63.96571103 1.11331463 78.3543277 -4.8605957 92.66137695 C-6.3274393 96.19840387 -7.50676854 99.66356467 -8.4375 103.375 C-9.74376545 108.1250562 -12.26135513 111.31572676 -15.4765625 114.9921875 C-17.03564847 117.04698286 -17.58206703 118.48110667 -18 121 C-18.66 121 -19.32 121 -20 121 C-20.061875 121.721875 -20.12375 122.44375 -20.1875 123.1875 C-21.06583803 126.22790088 -22.2042866 127.34329287 -24.48828125 129.4375 C-26.35995713 131.37204872 -27.79473299 133.46468333 -29.3125 135.6875 C-34.31772096 142.99359595 -39.65588601 149.80968271 -46 156 C-46.80695313 156.79277344 -47.61390625 157.58554688 -48.4453125 158.40234375 C-78.71895273 187.04314916 -115.33901711 204.95308133 -157.21875 205.00390625 C-172.39828695 204.26725225 -184.57559916 196.49231225 -195 186 C-203.83574857 175.58509637 -205.65196531 163.65801291 -205.4375 150.375 C-205.44458984 149.12976563 -205.45167969 147.88453125 -205.45898438 146.6015625 C-205.40835078 139.21684751 -204.61405788 132.91063338 -202 126 C-201.649375 125.01386719 -201.29875 124.02773437 -200.9375 123.01171875 C-199.22890388 118.7758242 -197.46673396 114.8609749 -195 111 C-193.9849911 109.00757511 -192.98126556 107.00925805 -192 105 C-191.34 105 -190.68 105 -190 105 C-190.2165625 105.55945313 -190.433125 106.11890625 -190.65625 106.6953125 C-194.25560669 117.06012668 -194.79131323 128.91727014 -190 139 C-183.81244693 149.81708918 -175.69837227 155.29551545 -164 159 C-135.42272255 164.8896566 -107.52434238 153.31488475 -84 138 C-78.77018606 134.40323764 -73.7080761 130.69023797 -68.9375 126.5 C-66 124 -66 124 -64 124 C-63.67 123.01 -63.34 122.02 -63 121 C-61.01739574 119.31267723 -59.0167658 117.64633943 -57 116 C-56.01 114.515 -56.01 114.515 -55 113 C-54.34 113 -53.68 113 -53 113 C-52.67 112.01 -52.34 111.02 -52 110 C-51.34 110 -50.68 110 -50 110 C-49.77828125 109.33355469 -49.5565625 108.66710937 -49.328125 107.98046875 C-47.58579265 104.07046998 -45.22050803 100.79396916 -42.75 97.3125 C-34.81747931 85.9083802 -28.63502341 74.31902592 -22.84448242 61.69897461 C-22 60 -22 60 -21 59 C-20.855625 57.948125 -20.71125 56.89625 -20.5625 55.8125 C-20.04458004 52.30215362 -19.18395348 49.32986916 -18 46 C-17.67 44.68 -17.34 43.36 -17 42 C-23.93 42 -30.86 42 -38 42 C-33.92039801 34.86069652 -33.92039801 34.86069652 -29 32 C-25.89670176 28.81656965 -23.11316449 25.35206281 -20.2890625 21.921875 C-19.76054687 21.28765625 -19.23203125 20.6534375 -18.6875 20 C-18.21699219 19.4225 -17.74648437 18.845 -17.26171875 18.25 C-16 17 -16 17 -14 17 C-13.72816895 16.40670898 -13.45633789 15.81341797 -13.17626953 15.20214844 C-12.02532728 13.04741637 -10.84570945 11.53798878 -9.1796875 9.765625 C-8.64472656 9.19199219 -8.10976562 8.61835937 -7.55859375 8.02734375 C-7.00300781 7.44082031 -6.44742188 6.85429688 -5.875 6.25 C-5.31167969 5.64800781 -4.74835938 5.04601562 -4.16796875 4.42578125 C-2.78275854 2.94665849 -1.3919271 1.47280359 0 0 Z " fill="#678E53" transform="translate(216,63)"/>
<path d="M0 0 C1 3 1 3 0.22265625 4.8046875 C-0.35162109 5.82949219 -0.35162109 5.82949219 -0.9375 6.875 C-4.04313266 13.51910612 -4.08685221 20.50314897 -2.375 27.5859375 C0.2741411 34.51627984 5.12657363 39.25907476 11.859375 42.28515625 C14.55422737 43.2796851 17.24959464 44.1735454 20 45 C20.99 45.33 21.98 45.66 23 46 C32.98277448 46.75917061 43.28623591 46.45937658 53 44 C54.27617187 43.70802734 54.27617187 43.70802734 55.578125 43.41015625 C79.63721788 37.46573126 99.04950857 24.75765769 116 7 C117 10 117 10 116.29296875 11.8671875 C115.92816406 12.52976562 115.56335938 13.19234375 115.1875 13.875 C114.03637634 15.99439736 112.99649383 18.00944717 112.15625 20.2734375 C110.5730629 24.00676385 108.47333672 27.32612767 106.3125 30.75 C105.86551758 31.4615625 105.41853516 32.173125 104.95800781 32.90625 C102.05339717 37.47689359 99.00486322 41.84143585 95.5859375 46.046875 C93.94462125 48.06820043 92.40954457 50.14681709 90.875 52.25 C86.41287638 58.2034123 80.9089441 63.47372273 75 68 C74.34 68 73.68 68 73 68 C73 68.66 73 69.32 73 70 C70.98799625 71.50135842 68.99659435 72.85603586 66.875 74.1875 C66.24408447 74.58606201 65.61316895 74.98462402 64.96313477 75.39526367 C48.69199765 85.50287708 29.6789128 94.5317147 10.1328125 90.12890625 C-0.5504992 87.03823798 -8.89075468 82.12778676 -14.71484375 72.41015625 C-15.35099609 71.21712891 -15.35099609 71.21712891 -16 70 C-16.41378906 69.23558594 -16.82757813 68.47117187 -17.25390625 67.68359375 C-23.34217833 54.12817263 -20.79715898 38.35775199 -15.80078125 24.91796875 C-14.34227804 21.42764326 -12.39389792 18.58714187 -10.11547852 15.58398438 C-8.66886187 13.52978241 -7.90329895 11.33545241 -7 9 C-5.84531527 7.35679481 -4.63528266 5.75118404 -3.375 4.1875 C-2.42753906 3.00220703 -2.42753906 3.00220703 -1.4609375 1.79296875 C-0.97882812 1.20128906 -0.49671875 0.60960938 0 0 Z " fill="#49BD53" transform="translate(64,113)"/>
<path d="M0 0 C0.33 0 0.66 0 1 0 C0.85721774 2.6460287 0.71083736 5.29178143 0.5625 7.9375 C0.52318359 8.67291016 0.48386719 9.40832031 0.44335938 10.16601562 C-0.05056787 18.866734 -1.02591789 26.98016317 -3.4375 35.375 C-3.65470703 36.16777344 -3.87191406 36.96054688 -4.09570312 37.77734375 C-5.10104735 41.3458629 -5.91339644 43.87009466 -8 47 C-8.49366258 48.37761541 -8.94634142 49.77029891 -9.3671875 51.171875 C-10.86165764 55.79930819 -12.81929802 59.97696006 -15.125 64.25 C-15.51896973 64.98307373 -15.91293945 65.71614746 -16.31884766 66.47143555 C-22.78366093 78.28160835 -30.69285684 88.33543966 -40 98 C-40.58136719 98.64453125 -41.16273438 99.2890625 -41.76171875 99.953125 C-54.63261848 113.82905721 -73.0760385 122.83831033 -90.90869141 128.35058594 C-92.85890102 128.95618453 -94.79542741 129.60536924 -96.73046875 130.2578125 C-114.86487727 135.54470428 -140.86231449 136.59488787 -158 128 C-158.66 127.34 -159.32 126.68 -160 126 C-158.07800781 125.83564453 -158.07800781 125.83564453 -156.1171875 125.66796875 C-128.90423943 123.22429246 -104.32826932 115.26692396 -81 101 C-80.36852051 100.61473145 -79.73704102 100.22946289 -79.08642578 99.83251953 C-66.89152445 92.28808302 -56.06554903 83.19886756 -46 73 C-45.24460937 72.27941406 -44.48921875 71.55882812 -43.7109375 70.81640625 C-34.45135386 61.88199193 -26.67952831 51.98890142 -20 41 C-19.34 40.67 -18.68 40.34 -18 40 C-16.95281202 37.68745988 -15.95653635 35.3514852 -15 33 C-14.34711373 31.65986503 -13.68774405 30.32258472 -13 29 C-12.34 29 -11.68 29 -11 29 C-10.88140625 28.46375 -10.7628125 27.9275 -10.640625 27.375 C-8.10879947 17.98871999 -3.78434233 8.93748933 0 0 Z " fill="#1C3C69" transform="translate(222,156)"/>
<path d="M0 0 C6.21757313 3.75801107 11.2892154 8.33059274 13.9453125 15.17578125 C14.37198229 17.98066827 14.42290761 20.71718432 14.3828125 23.55078125 C14.37378906 24.30665527 14.36476562 25.0625293 14.35546875 25.84130859 C14.10285273 33.94782691 12.04723079 38.41839219 6.1328125 43.98828125 C-0.60507891 49.39340293 -6.33008668 50.74366726 -14.89453125 50.52734375 C-21.93096307 49.74455158 -26.43941346 46.45038016 -31.0546875 41.17578125 C-31.5909375 40.57765625 -32.1271875 39.97953125 -32.6796875 39.36328125 C-37.08534524 32.3542803 -38.26561813 25.50692238 -36.43359375 17.44140625 C-33.81357525 9.01076896 -29.27585602 3.77342342 -21.8046875 -0.82421875 C-14.71868789 -2.71381865 -6.83026344 -3.01503261 0 0 Z " fill="#78C44A" transform="translate(130.0546875,88.82421875)"/>
</svg>

